<?xml version="1.0" encoding="utf-8"?>
<!-- Generator: Adobe Illustrator 16.0.3, SVG Export Plug-In . SVG Version: 6.00 Build 0)  -->
<!DOCTYPE svg PUBLIC "-//W3C//DTD SVG 1.1//EN" "http://www.w3.org/Graphics/SVG/1.1/DTD/svg11.dtd">
<svg version="1.1" id="Layer_1" xmlns="http://www.w3.org/2000/svg" xmlns:xlink="http://www.w3.org/1999/xlink" x="0px" y="0px"
	 width="725.386px" height="216.386px" viewBox="0 0 725.386 216.386" enable-background="new 0 0 725.386 216.386"
	 xml:space="preserve">
<g>
	<g>
		<g>
			<defs>
				<rect id="SVGID_1_" x="-24" y="32.025" width="890.773" height="265.722"/>
			</defs>
			<clipPath id="SVGID_2_">
				<use xlink:href="#SVGID_1_"  overflow="visible"/>
			</clipPath>
			<rect x="-24" y="32.025" clip-path="url(#SVGID_2_)" fill="#FFFFFF" width="746.622" height="121.571"/>
		</g>
	</g>
</g>
<g>
	<g>
		<g>
			<defs>
				<rect id="SVGID_3_" x="4.244" y="55.357" width="715.636" height="94.556"/>
			</defs>
			<clipPath id="SVGID_4_">
				<use xlink:href="#SVGID_3_"  overflow="visible"/>
			</clipPath>
			<rect x="4.244" y="55.357" clip-path="url(#SVGID_4_)" fill="#FFFFFF" width="715.636" height="94.556"/>
		</g>
	</g>
</g>
<g>
	<g>
		<g>
			<defs>
				<rect id="SVGID_5_" x="-24" y="32.025" width="890.773" height="265.722"/>
			</defs>
			<clipPath id="SVGID_6_">
				<use xlink:href="#SVGID_5_"  overflow="visible"/>
			</clipPath>
			<path clip-path="url(#SVGID_6_)" fill="#E6E6E6" d="M197.586,126.426H4.398v23.332h193.188V126.426z M197.586,102.788H4.398
				v23.332h193.188V102.788z M197.586,79.15H4.398v23.332h193.188V79.15z M719.728,55.511H615.607v23.332h104.121V55.511z
				 M615.3,55.511H511.177v23.332H615.3V55.511z M510.87,55.511H406.749v23.332H510.87V55.511z M406.442,55.511H302.321v23.332
				h104.121V55.511z M302.015,55.511H197.893v23.332h104.12V55.511H302.015z M197.586,55.511H4.398v23.332h193.188V55.511z"/>
		</g>
	</g>
	<g>
		<g>
			<defs>
				<rect id="SVGID_7_" x="-24" y="32.025" width="890.773" height="265.722"/>
			</defs>
			<clipPath id="SVGID_8_">
				<use xlink:href="#SVGID_7_"  overflow="visible"/>
			</clipPath>
			<path clip-path="url(#SVGID_8_)" fill="none" stroke="#CDCDCD" stroke-width="0.307" stroke-miterlimit="10" d="M719.881,55.357
				v94.556V55.357z"/>
		</g>
	</g>
	<g>
		<g>
			<defs>
				<rect id="SVGID_9_" x="-24" y="32.025" width="890.773" height="265.722"/>
			</defs>
			<clipPath id="SVGID_10_">
				<use xlink:href="#SVGID_9_"  overflow="visible"/>
			</clipPath>
			<path clip-path="url(#SVGID_10_)" fill="none" stroke="#CDCDCD" stroke-width="0.307" stroke-miterlimit="10" d="M615.454,55.357
				v94.556V55.357z"/>
		</g>
	</g>
	<g>
		<g>
			<defs>
				<rect id="SVGID_11_" x="-24" y="32.025" width="890.773" height="265.722"/>
			</defs>
			<clipPath id="SVGID_12_">
				<use xlink:href="#SVGID_11_"  overflow="visible"/>
			</clipPath>
			<path clip-path="url(#SVGID_12_)" fill="none" stroke="#CDCDCD" stroke-width="0.307" stroke-miterlimit="10" d="M511.023,55.357
				v94.556V55.357z"/>
		</g>
	</g>
	<g>
		<g>
			<defs>
				<rect id="SVGID_13_" x="-24" y="32.025" width="890.773" height="265.722"/>
			</defs>
			<clipPath id="SVGID_14_">
				<use xlink:href="#SVGID_13_"  overflow="visible"/>
			</clipPath>
			<path clip-path="url(#SVGID_14_)" fill="none" stroke="#CDCDCD" stroke-width="0.307" stroke-miterlimit="10" d="M406.595,55.357
				v94.556V55.357z"/>
		</g>
	</g>
	<g>
		<g>
			<defs>
				<rect id="SVGID_15_" x="-24" y="32.025" width="890.773" height="265.722"/>
			</defs>
			<clipPath id="SVGID_16_">
				<use xlink:href="#SVGID_15_"  overflow="visible"/>
			</clipPath>
			<path clip-path="url(#SVGID_16_)" fill="none" stroke="#CDCDCD" stroke-width="0.307" stroke-miterlimit="10" d="M302.167,55.357
				v94.556V55.357z"/>
		</g>
	</g>
	<g>
		<g>
			<defs>
				<rect id="SVGID_17_" x="-24" y="32.025" width="890.773" height="265.722"/>
			</defs>
			<clipPath id="SVGID_18_">
				<use xlink:href="#SVGID_17_"  overflow="visible"/>
			</clipPath>
			<path clip-path="url(#SVGID_18_)" fill="none" stroke="#CDCDCD" stroke-width="0.307" stroke-miterlimit="10" d="M197.739,55.357
				v94.556V55.357z"/>
		</g>
	</g>
	<g>
		<g>
			<defs>
				<rect id="SVGID_19_" x="-24" y="32.025" width="890.773" height="265.722"/>
			</defs>
			<clipPath id="SVGID_20_">
				<use xlink:href="#SVGID_19_"  overflow="visible"/>
			</clipPath>
			<path clip-path="url(#SVGID_20_)" fill="none" stroke="#CDCDCD" stroke-width="0.307" stroke-miterlimit="10" d="M4.244,55.357
				v94.556V55.357z"/>
		</g>
	</g>
	<g>
		<g>
			<defs>
				<rect id="SVGID_21_" x="-24" y="32.025" width="890.773" height="265.722"/>
			</defs>
			<clipPath id="SVGID_22_">
				<use xlink:href="#SVGID_21_"  overflow="visible"/>
			</clipPath>
			<path clip-path="url(#SVGID_22_)" fill="none" stroke="#CDCDCD" stroke-width="0.307" stroke-miterlimit="10" d="M4.091,149.913
				h715.941H4.091z"/>
		</g>
	</g>
	<g>
		<g>
			<defs>
				<rect id="SVGID_23_" x="-24" y="32.025" width="890.773" height="265.722"/>
			</defs>
			<clipPath id="SVGID_24_">
				<use xlink:href="#SVGID_23_"  overflow="visible"/>
			</clipPath>
			<path clip-path="url(#SVGID_24_)" fill="none" stroke="#CDCDCD" stroke-width="0.307" stroke-miterlimit="10" d="M4.091,126.273
				h715.941H4.091z"/>
		</g>
	</g>
	<g>
		<g>
			<defs>
				<rect id="SVGID_25_" x="-24" y="32.025" width="890.773" height="265.722"/>
			</defs>
			<clipPath id="SVGID_26_">
				<use xlink:href="#SVGID_25_"  overflow="visible"/>
			</clipPath>
			<path clip-path="url(#SVGID_26_)" fill="none" stroke="#CDCDCD" stroke-width="0.307" stroke-miterlimit="10" d="M4.091,102.634
				h715.941H4.091z"/>
		</g>
	</g>
	<g>
		<g>
			<defs>
				<rect id="SVGID_27_" x="-24" y="32.025" width="890.773" height="265.722"/>
			</defs>
			<clipPath id="SVGID_28_">
				<use xlink:href="#SVGID_27_"  overflow="visible"/>
			</clipPath>
			<path clip-path="url(#SVGID_28_)" fill="none" stroke="#CDCDCD" stroke-width="0.307" stroke-miterlimit="10" d="M4.091,78.996
				h715.941H4.091z"/>
		</g>
	</g>
	<g>
		<g>
			<defs>
				<rect id="SVGID_29_" x="-24" y="32.025" width="890.773" height="265.722"/>
			</defs>
			<clipPath id="SVGID_30_">
				<use xlink:href="#SVGID_29_"  overflow="visible"/>
			</clipPath>
			<path clip-path="url(#SVGID_30_)" fill="none" stroke="#CDCDCD" stroke-width="0.307" stroke-miterlimit="10" d="M4.091,55.357
				h715.941H4.091z"/>
		</g>
	</g>
</g>
<g>
	<g>
		<g>
			<defs>
				<rect id="SVGID_31_" x="197.893" y="55.511" width="104.12" height="23.332"/>
			</defs>
			<clipPath id="SVGID_32_">
				<use xlink:href="#SVGID_31_"  overflow="visible"/>
			</clipPath>
			<g clip-path="url(#SVGID_32_)">
				<text transform="matrix(1 0 0 1 211.436 73.9287)" font-family="'HelveticaNeue-Bold'" font-size="17.1919">1 session</text>
			</g>
		</g>
	</g>
</g>
<g>
	<g>
		<g>
			<defs>
				<rect id="SVGID_33_" x="302.321" y="55.511" width="104.121" height="23.332"/>
			</defs>
			<clipPath id="SVGID_34_">
				<use xlink:href="#SVGID_33_"  overflow="visible"/>
			</clipPath>
			<g clip-path="url(#SVGID_34_)">
				<text transform="matrix(1 0 0 1 320.9531 73.9287)" font-family="'HelveticaNeue-Bold'" font-size="17.1919">1 month</text>
			</g>
		</g>
	</g>
</g>
<g>
	<g>
		<g>
			<defs>
				<rect id="SVGID_35_" x="406.749" y="55.511" width="104.121" height="23.332"/>
			</defs>
			<clipPath id="SVGID_36_">
				<use xlink:href="#SVGID_35_"  overflow="visible"/>
			</clipPath>
			<g clip-path="url(#SVGID_36_)">
				<text transform="matrix(1 0 0 1 420.7642 73.9287)" font-family="'HelveticaNeue-Bold'" font-size="17.1919">3 months</text>
			</g>
		</g>
	</g>
</g>
<g>
	<g>
		<g>
			<defs>
				<rect id="SVGID_37_" x="511.177" y="55.511" width="104.123" height="23.332"/>
			</defs>
			<clipPath id="SVGID_38_">
				<use xlink:href="#SVGID_37_"  overflow="visible"/>
			</clipPath>
			<g clip-path="url(#SVGID_38_)">
				<text transform="matrix(1 0 0 1 525.1929 73.9287)" font-family="'HelveticaNeue-Bold'" font-size="17.1919">6 months</text>
			</g>
		</g>
	</g>
</g>
<g>
	<g>
		<g>
			<defs>
				<rect id="SVGID_39_" x="615.607" y="55.511" width="104.121" height="23.332"/>
			</defs>
			<clipPath id="SVGID_40_">
				<use xlink:href="#SVGID_39_"  overflow="visible"/>
			</clipPath>
			<g clip-path="url(#SVGID_40_)">
				<text transform="matrix(1 0 0 1 642.8247 73.9287)" font-family="'HelveticaNeue-Bold'" font-size="17.1919">1 year</text>
			</g>
		</g>
	</g>
</g>
<g>
	<g>
		<g>
			<defs>
				<rect id="SVGID_41_" x="4.398" y="79.15" width="193.188" height="23.332"/>
			</defs>
			<clipPath id="SVGID_42_">
				<use xlink:href="#SVGID_41_"  overflow="visible"/>
			</clipPath>
			<g clip-path="url(#SVGID_42_)">
				<text transform="matrix(1 0 0 1 6.8545 97.5679)" font-family="'HelveticaNeue-Bold'" font-size="17.1919">senior, student, youth</text>
			</g>
		</g>
	</g>
</g>
<g>
	<g>
		<g>
			<defs>
				<rect id="SVGID_43_" x="4.398" y="102.788" width="193.188" height="23.332"/>
			</defs>
			<clipPath id="SVGID_44_">
				<use xlink:href="#SVGID_43_"  overflow="visible"/>
			</clipPath>
			<g clip-path="url(#SVGID_44_)">
				<text transform="matrix(1 0 0 1 6.8545 121.2085)" font-family="'HelveticaNeue-Bold'" font-size="17.1919">adults</text>
			</g>
		</g>
	</g>
</g>
<g>
	<g>
		<g>
			<defs>
				<rect id="SVGID_45_" x="4.398" y="126.426" width="193.188" height="23.332"/>
			</defs>
			<clipPath id="SVGID_46_">
				<use xlink:href="#SVGID_45_"  overflow="visible"/>
			</clipPath>
			<g clip-path="url(#SVGID_46_)">
				<text transform="matrix(1 0 0 1 6.8545 144.8452)" font-family="'HelveticaNeue-Bold'" font-size="17.1919">family</text>
			</g>
		</g>
	</g>
</g>
<g>
	<g>
		<g>
			<defs>
				<rect id="SVGID_47_" x="197.893" y="79.15" width="104.12" height="23.332"/>
			</defs>
			<clipPath id="SVGID_48_">
				<use xlink:href="#SVGID_47_"  overflow="visible"/>
			</clipPath>
			<g clip-path="url(#SVGID_48_)">
				<text transform="matrix(1 0 0 1 256.5449 96.3403)" font-family="'HelveticaNeue'" font-size="17.1919">$2.90</text>
			</g>
		</g>
	</g>
</g>
<g>
	<g>
		<g>
			<defs>
				<rect id="SVGID_49_" x="302.321" y="79.15" width="104.121" height="23.332"/>
			</defs>
			<clipPath id="SVGID_50_">
				<use xlink:href="#SVGID_49_"  overflow="visible"/>
			</clipPath>
			<g clip-path="url(#SVGID_50_)">
				<text transform="matrix(1 0 0 1 351.4131 96.3403)" font-family="'HelveticaNeue'" font-size="17.1919">$62.25</text>
			</g>
		</g>
	</g>
</g>
<g>
	<g>
		<g>
			<defs>
				<rect id="SVGID_51_" x="406.749" y="79.15" width="104.121" height="23.332"/>
			</defs>
			<clipPath id="SVGID_52_">
				<use xlink:href="#SVGID_51_"  overflow="visible"/>
			</clipPath>
			<g clip-path="url(#SVGID_52_)">
				<text transform="matrix(1 0 0 1 446.2827 96.3403)" font-family="'HelveticaNeue'" font-size="17.1919">$123.50</text>
			</g>
		</g>
	</g>
</g>
<g>
	<g>
		<g>
			<defs>
				<rect id="SVGID_53_" x="511.177" y="79.15" width="104.123" height="23.332"/>
			</defs>
			<clipPath id="SVGID_54_">
				<use xlink:href="#SVGID_53_"  overflow="visible"/>
			</clipPath>
			<g clip-path="url(#SVGID_54_)">
				<text transform="matrix(1 0 0 1 550.7104 96.3403)" font-family="'HelveticaNeue'" font-size="17.1919">$229.50</text>
			</g>
		</g>
	</g>
</g>
<g>
	<g>
		<g>
			<defs>
				<rect id="SVGID_55_" x="615.607" y="79.15" width="104.121" height="23.332"/>
			</defs>
			<clipPath id="SVGID_56_">
				<use xlink:href="#SVGID_55_"  overflow="visible"/>
			</clipPath>
			<g clip-path="url(#SVGID_56_)">
				<text transform="matrix(1 0 0 1 655.1392 96.3403)" font-family="'HelveticaNeue'" font-size="17.1919">$415.00</text>
			</g>
		</g>
	</g>
</g>
<g>
	<g>
		<g>
			<defs>
				<rect id="SVGID_57_" x="197.893" y="102.788" width="104.12" height="23.332"/>
			</defs>
			<clipPath id="SVGID_58_">
				<use xlink:href="#SVGID_57_"  overflow="visible"/>
			</clipPath>
			<g clip-path="url(#SVGID_58_)">
				<text transform="matrix(1 0 0 1 256.5449 119.98)" font-family="'HelveticaNeue'" font-size="17.1919">$4.85</text>
			</g>
		</g>
	</g>
</g>
<g>
	<g>
		<g>
			<defs>
				<rect id="SVGID_59_" x="302.321" y="102.788" width="104.121" height="23.332"/>
			</defs>
			<clipPath id="SVGID_60_">
				<use xlink:href="#SVGID_59_"  overflow="visible"/>
			</clipPath>
			<g clip-path="url(#SVGID_60_)">
				<text transform="matrix(1 0 0 1 351.4131 119.98)" font-family="'HelveticaNeue'" font-size="17.1919">$76.50</text>
			</g>
		</g>
	</g>
</g>
<g>
	<g>
		<g>
			<defs>
				<rect id="SVGID_61_" x="406.749" y="102.788" width="104.121" height="23.332"/>
			</defs>
			<clipPath id="SVGID_62_">
				<use xlink:href="#SVGID_61_"  overflow="visible"/>
			</clipPath>
			<g clip-path="url(#SVGID_62_)">
				<text transform="matrix(1 0 0 1 446.2827 119.98)" font-family="'HelveticaNeue'" font-size="17.1919">$151.50</text>
			</g>
		</g>
	</g>
</g>
<g>
	<g>
		<g>
			<defs>
				<rect id="SVGID_63_" x="511.177" y="102.788" width="104.123" height="23.332"/>
			</defs>
			<clipPath id="SVGID_64_">
				<use xlink:href="#SVGID_63_"  overflow="visible"/>
			</clipPath>
			<g clip-path="url(#SVGID_64_)">
				<text transform="matrix(1 0 0 1 550.7104 119.98)" font-family="'HelveticaNeue'" font-size="17.1919">$280.75</text>
			</g>
		</g>
	</g>
</g>
<g>
	<g>
		<g>
			<defs>
				<rect id="SVGID_65_" x="615.607" y="102.788" width="104.121" height="23.332"/>
			</defs>
			<clipPath id="SVGID_66_">
				<use xlink:href="#SVGID_65_"  overflow="visible"/>
			</clipPath>
			<g clip-path="url(#SVGID_66_)">
				<text transform="matrix(1 0 0 1 655.1392 119.98)" font-family="'HelveticaNeue'" font-size="17.1919">$510.50</text>
			</g>
		</g>
	</g>
</g>
<g>
	<g>
		<g>
			<defs>
				<rect id="SVGID_67_" x="197.893" y="126.426" width="104.12" height="23.332"/>
			</defs>
			<clipPath id="SVGID_68_">
				<use xlink:href="#SVGID_67_"  overflow="visible"/>
			</clipPath>
			<g clip-path="url(#SVGID_68_)">
				<text transform="matrix(1 0 0 1 256.5449 143.6187)" font-family="'HelveticaNeue'" font-size="17.1919">$3.75</text>
			</g>
		</g>
	</g>
</g>
<g>
	<g>
		<g>
			<defs>
				<rect id="SVGID_69_" x="302.321" y="126.426" width="104.121" height="23.332"/>
			</defs>
			<clipPath id="SVGID_70_">
				<use xlink:href="#SVGID_69_"  overflow="visible"/>
			</clipPath>
			<g clip-path="url(#SVGID_70_)">
				<text transform="matrix(1 0 0 1 341.855 143.6187)" font-family="'HelveticaNeue'" font-size="17.1919">$101.75</text>
			</g>
		</g>
	</g>
</g>
<g>
	<g>
		<g>
			<defs>
				<rect id="SVGID_71_" x="406.749" y="126.426" width="104.121" height="23.332"/>
			</defs>
			<clipPath id="SVGID_72_">
				<use xlink:href="#SVGID_71_"  overflow="visible"/>
			</clipPath>
			<g clip-path="url(#SVGID_72_)">
				<text transform="matrix(1 0 0 1 446.2827 143.6187)" font-family="'HelveticaNeue'" font-size="17.1919">$275.00</text>
			</g>
		</g>
	</g>
</g>
<g>
	<g>
		<g>
			<defs>
				<rect id="SVGID_73_" x="511.177" y="126.426" width="104.123" height="23.332"/>
			</defs>
			<clipPath id="SVGID_74_">
				<use xlink:href="#SVGID_73_"  overflow="visible"/>
			</clipPath>
			<g clip-path="url(#SVGID_74_)">
				<text transform="matrix(1 0 0 1 550.7104 143.6187)" font-family="'HelveticaNeue'" font-size="17.1919">$504.75</text>
			</g>
		</g>
	</g>
</g>
<g>
	<g>
		<g>
			<defs>
				<rect id="SVGID_75_" x="615.607" y="126.426" width="104.121" height="23.332"/>
			</defs>
			<clipPath id="SVGID_76_">
				<use xlink:href="#SVGID_75_"  overflow="visible"/>
			</clipPath>
			<g clip-path="url(#SVGID_76_)">
				<text transform="matrix(1 0 0 1 655.1392 143.6187)" font-family="'HelveticaNeue'" font-size="17.1919">$919.50</text>
			</g>
		</g>
	</g>
</g>
</svg>
